<?xml version="1.0" encoding="UTF-8" standalone="no"?>
<!-- Uploaded to: SVG Repo, www.svgrepo.com, Generator: SVG Repo Mixer Tools -->

<svg
   fill="#000000"
   version="1.1"
   id="Capa_1"
   width="800px"
   height="800px"
   viewBox="0 0 46.223 46.223"
   xml:space="preserve"
   sodipodi:docname="christmas-trees-svgrepo-com.svg"
   inkscape:version="1.4 (e7c3feb100, 2024-10-09)"
   xmlns:inkscape="http://www.inkscape.org/namespaces/inkscape"
   xmlns:sodipodi="http://sodipodi.sourceforge.net/DTD/sodipodi-0.dtd"
   xmlns="http://www.w3.org/2000/svg"
   xmlns:svg="http://www.w3.org/2000/svg"><defs
   id="defs6" /><sodipodi:namedview
   id="namedview6"
   pagecolor="#ffffff"
   bordercolor="#000000"
   borderopacity="0.25"
   inkscape:showpageshadow="2"
   inkscape:pageopacity="0.0"
   inkscape:pagecheckerboard="0"
   inkscape:deskcolor="#d1d1d1"
   inkscape:zoom="1.4531044"
   inkscape:cx="-66.065453"
   inkscape:cy="97.721815"
   inkscape:window-width="1920"
   inkscape:window-height="1031"
   inkscape:window-x="0"
   inkscape:window-y="0"
   inkscape:window-maximized="1"
   inkscape:current-layer="Capa_1"
   inkscape:lockguides="true"
   showgrid="false" />
<path
   d="M 6.3935483,12.669486 V 11.1679 h 4.1467307 c 0.238413,0 0.457095,-0.138524 0.566846,-0.349809 0.109344,-0.212516 0.09208,-0.464082 -0.04563,-0.658923 L 8.7304007,6.8707223 h 0.030391 c 0.2388243,0 0.4575046,-0.1393493 0.5664347,-0.3510387 C 9.4373922,6.3071682 9.4197147,6.049025 9.2820101,5.8541844 L 7.4770911,3.3023466 C 7.5588923,3.2443875 7.6271278,3.1662871 7.6743962,3.0737995 7.7841472,2.8621061 7.7664734,2.606429 7.6287688,2.4115886 L 6.118963,0.27779784 C 5.9993472,0.10885387 5.8053242,0.00814519 5.5977445,0.00814519 c -0.2067625,0 -0.4016004,0.1002976 -0.5212192,0.26924161 l -1.509808,2.1337908 c -0.1377038,0.1948405 -0.1553791,0.449695 -0.045627,0.6617999 0.048094,0.092488 0.116329,0.1701768 0.198129,0.2277247 L 1.914684,5.8513039 C 1.7769801,6.0465567 1.7593049,6.3075757 1.8690566,6.5192695 1.9783971,6.7317849 2.197079,6.8703119 2.4359026,6.8703119 h 0.030006 L 0.13563437,10.157113 c -0.13770374,0.194843 -0.15496806,0.452162 -0.04562722,0.664267 0.10975192,0.211695 0.32843361,0.34652 0.56684599,0.34652 H 4.6691693 v 1.501587"
   id="path1"
   sodipodi:nodetypes="ccscccsccccccsccccccscccscc"
   style="fill:none;stroke:#000000;stroke-width:0.02183764;stroke-dasharray:none;stroke-opacity:1" />
</svg>
